<?xml version="1.0" encoding="utf-8"?>
<!-- Generator: Adobe Illustrator 26.3.1, SVG Export Plug-In . SVG Version: 6.00 Build 0)  -->
<svg version="1.1" id="Layer_1" xmlns="http://www.w3.org/2000/svg" xmlns:xlink="http://www.w3.org/1999/xlink" x="0px" y="0px"
	 viewBox="0 0 24.1 24.1" style="enable-background:new 0 0 24.1 24.1;" xml:space="preserve">
<style type="text/css">
	.st0{clip-path:url(#SVGID_00000058551797070524841460000007276899739155813765_);}
	.st1{fill:#00AC69;}
	.st2{fill:#FFFFFF;}
</style>
<g>
	<defs>
		<rect id="SVGID_1_" x="1.1" y="3.9" width="21.9" height="16.3"/>
	</defs>
	<clipPath id="SVGID_00000075129527284378403080000006584805684203852205_">
		<use xlink:href="#SVGID_1_"  style="overflow:visible;"/>
	</clipPath>
	<g style="clip-path:url(#SVGID_00000075129527284378403080000006584805684203852205_);">
		<path class="st1" d="M22.8,13.3c-0.1,0-0.3-0.1-0.4-0.2l-3.1-2.4V6.7h-2v2.5L12,5.1l-10.2,8c-0.2,0.2-0.6,0.2-0.6,0
			c-0.2-0.2-0.2-0.6,0-0.6L12,3.9l4.3,3.5V5.7H20v4.7l2.7,2.2c0.2,0.2,0.2,0.4,0,0.6C23.2,13.1,23,13.3,22.8,13.3z"/>
		<path class="st1" d="M21.4,20.2h-18v-8.6c0-0.2,0.2-0.4,0.4-0.4c0.2,0,0.4,0.2,0.4,0.4v7.6h16.1v-7.6c0-0.2,0.2-0.4,0.4-0.4
			c0.2,0,0.4,0.2,0.4,0.4v8.6H21.4z"/>
		<path class="st2" d="M20.2,19H4.4v-7.4l8-6.3l5.5,4.3V6.9h1.6V11l1,0.8V19H20.2z"/>
		<path class="st2" d="M20.4,19.2H4.2v-7.8l8.2-6.5L17.7,9V6.5h2v4.1l1,0.8v7.8H20.4z M4.6,18.8H20v-7.3l-1-0.8V6.9h-1.2v2.9
			l-5.7-4.5l-7.6,6.3V18.8z"/>
		<path class="st2" d="M12,17.2c-0.4-0.2-1.4-1-3.1-1H8.7v-5.5h0.4c0.6,0,1.8,0.2,3.1,1v5.5H12z"/>
		<path class="st1" d="M9.1,11c0.6,0,1.8,0.2,2.9,1v5.3c-0.4-0.4-1.6-0.8-3.1-0.8H8.7v-5.3C8.8,11,8.9,11,9.1,11z M9.1,10.8H8.7v5.7
			h0.4c2.2,0,3.3,1,3.3,1v-5.7C10.8,11,9.6,10.8,9.1,10.8z"/>
		<path class="st1" d="M12,17.6c0,0-0.2-0.2-0.8-0.4c-0.4-0.2-1.4-0.4-2.4-0.4H8.3V12H7.9v5.7C10.4,17.2,11.8,17.6,12,17.6z"/>
		<path class="st2" d="M12.4,12c1.4-1,2.5-1,3.1-1h0.4v5.5h-0.2c-1.8,0-2.7,0.6-3.1,1V12H12.4z"/>
		<path class="st1" d="M15.5,11h0.2v5.3h-0.2c-1.6,0-2.7,0.6-3.1,0.8v-5.3C13.8,11,14.9,11,15.5,11z M15.5,10.8
			c-0.6,0-1.8,0.2-3.1,1v5.7c0,0,1.2-1,3.3-1h0.4v-5.7H15.5z"/>
		<path class="st1" d="M12.4,17.6c0,0,0.2-0.2,0.8-0.4c0.4-0.2,1.4-0.4,2.4-0.4h0.6V12h0.4v5.7C14.2,17.2,12.8,17.6,12.4,17.6z"/>
	</g>
</g>
</svg>
