<?xml version="1.0" encoding="utf-8"?>
<!-- Generator: Adobe Illustrator 26.3.1, SVG Export Plug-In . SVG Version: 6.00 Build 0)  -->
<svg version="1.1" id="Layer_1" xmlns="http://www.w3.org/2000/svg" xmlns:xlink="http://www.w3.org/1999/xlink" x="0px" y="0px"
	 viewBox="0 0 24.1 24.1" style="enable-background:new 0 0 24.1 24.1;" xml:space="preserve">
<style type="text/css">
	.st0{clip-path:url(#SVGID_00000115512676176631370810000012627264939598363265_);}
	.st1{fill:#00A0DF;}
	.st2{fill:#FFFFFF;}
</style>
<g>
	<defs>
		<rect id="SVGID_1_" x="8.1" y="1" width="7.9" height="22.2"/>
	</defs>
	<clipPath id="SVGID_00000016792836413801166140000012132746155971558562_">
		<use xlink:href="#SVGID_1_"  style="overflow:visible;"/>
	</clipPath>
	<g style="clip-path:url(#SVGID_00000016792836413801166140000012132746155971558562_);">
		<path class="st1" d="M15,1.2c-0.3,0-0.5,0.3-0.5,0.5v2.2h-5V1.8c0-0.3-0.3-0.5-0.5-0.5c-0.3,0-0.5,0.3-0.5,0.5v20.6
			c0,0.3,0.3,0.5,0.5,0.5c0.3,0,0.5-0.3,0.5-0.5v-2.2h5v2.2c0,0.3,0.3,0.5,0.5,0.5c0.3,0,0.5-0.3,0.5-0.5V1.8
			C15.6,1.5,15.3,1.2,15,1.2z M14.5,4.9v2.7h-5V4.9H14.5z M9.5,11.5V8.8h5v2.7H9.5z M14.5,12.5v2.7h-5v-2.7H14.5z M9.5,19.1v-2.7h5
			v2.7H9.5z"/>
		<path class="st2" d="M15,1.2c0.3,0,0.5,0.3,0.5,0.5v20.6c0,0.3-0.3,0.5-0.5,0.5c-0.3,0-0.5-0.3-0.5-0.5v-2.2h-5v2.2
			c0,0.3-0.3,0.5-0.5,0.5c-0.3,0-0.5-0.3-0.5-0.5V1.8c0-0.3,0.3-0.5,0.5-0.5c0.3,0,0.5,0.3,0.5,0.5v2.2h5V1.8
			C14.5,1.5,14.8,1.2,15,1.2z M9.5,7.7h5V5h-5V7.7z M9.5,11.5h5V8.8h-5V11.5z M9.5,15.3h5v-2.7h-5V15.3z M9.5,19.1h5v-2.7h-5V19.1z
			 M15,1c-0.4,0-0.8,0.4-0.8,0.8v1.9H9.7V1.8C9.7,1.4,9.3,1,8.9,1C8.5,1,8.1,1.4,8.1,1.8v20.6c0,0.4,0.4,0.8,0.8,0.8
			c0.4,0,0.8-0.4,0.8-0.8v-1.9h4.6v1.9c0,0.4,0.4,0.8,0.8,0.8c0.4,0,0.8-0.4,0.8-0.8V1.8C15.8,1.4,15.4,1,15,1z M9.7,5.1h4.6v2.3
			H9.7V5.1z M9.7,8.9h4.6v2.3H9.7V8.9z M9.7,12.7h4.6V15H9.7V12.7z M9.7,16.5h4.6v2.3H9.7V16.5z"/>
	</g>
</g>
</svg>
