<?xml version="1.0" encoding="utf-8"?>
<!-- Generator: Adobe Illustrator 26.3.1, SVG Export Plug-In . SVG Version: 6.00 Build 0)  -->
<svg version="1.1" id="Layer_1" xmlns="http://www.w3.org/2000/svg" xmlns:xlink="http://www.w3.org/1999/xlink" x="0px" y="0px"
	 viewBox="0 0 24.1 24.1" style="enable-background:new 0 0 24.1 24.1;" xml:space="preserve">
<style type="text/css">
	.st0{clip-path:url(#SVGID_00000116228104493638657240000011259583768300115079_);}
	.st1{fill:#003764;}
	.st2{fill:#CDDB00;}
	.st3{fill:#2ED9C3;}
</style>
<g>
	<defs>
		<rect id="SVGID_1_" x="7.7" y="2" width="12" height="20"/>
	</defs>
	<clipPath id="SVGID_00000061464784666471121120000008673476319164543423_">
		<use xlink:href="#SVGID_1_"  style="overflow:visible;"/>
	</clipPath>
	<g style="clip-path:url(#SVGID_00000061464784666471121120000008673476319164543423_);">
		<path class="st1" d="M8.8,17.7c0.6-0.4,0.9-1.1,0.9-1.9c0-0.1,0.1-0.2,0.2-0.2h3.6c0.1,0,0.2,0.1,0.2,0.2c0,0.8,0.4,1.5,0.9,1.9
			H8.8z"/>
		<path class="st2" d="M12.9,12.1l2.5-1.5v-0.2c0.2-0.8,0.6-1.5,0.8-2.3l-1.7,0.2l2.1-1.1c1.1-2.3,2.3-3.8,3.2-4.9
			c-1.5-0.4-2.6-0.2-4,0.2l-0.4,1.1V2.4c-1.1,0.4-2.1,1.3-3,2.3L12.6,7l-0.8-1.5c-0.8,0.9-1.3,1.9-1.7,3l0.6,2.6L9.7,9.6
			c-0.6,2.6,1.5,4.3,1.5,4.3c0.8-5.3,3-8.1,5.1-9.8c-2.1,1.5-4.3,4.5-5.1,9.8c0,0,2.3,0.8,3.6-2.3L12.9,12.1z"/>
		<path class="st3" d="M11.6,18.5c-0.2-1.7,0-3.6,0.4-5.5c0.8-3.4,2.3-7,5.3-9.1c0.6-0.4,0-0.4-0.4-0.2c-4.5,3.2-6.4,9.6-6,14.9
			C10.7,19.2,11.6,18.9,11.6,18.5z"/>
		<path class="st3" d="M15,17.2c-0.4-0.4-0.8-0.8-0.8-1.3v-0.2c0.2,0,0.4-0.2,0.4-0.4c0-0.2-0.2-0.4-0.4-0.4H9
			c-0.2,0-0.4,0.2-0.4,0.4c0,0.2,0.2,0.4,0.4,0.4v0.2c0,0.6-0.2,1.1-0.8,1.3c-0.8,0.6-0.4,1.1-0.3,1.1v3.8h7.5v-3.8
			C15.8,17.9,15.4,17.3,15,17.2z M8.8,17.7c0.6-0.4,0.9-1.1,0.9-1.9c0-0.1,0.1-0.2,0.2-0.2h3.6c0.1,0,0.2,0.1,0.2,0.2
			c0,0.8,0.4,1.5,0.9,1.9H8.8z"/>
	</g>
</g>
</svg>
