<?xml version="1.0" encoding="utf-8"?>
<!-- Generator: Adobe Illustrator 26.3.1, SVG Export Plug-In . SVG Version: 6.00 Build 0)  -->
<svg version="1.1" id="Layer_1" xmlns="http://www.w3.org/2000/svg" xmlns:xlink="http://www.w3.org/1999/xlink" x="0px" y="0px"
	 viewBox="0 0 24.1 24.1" style="enable-background:new 0 0 24.1 24.1;" xml:space="preserve">
<style type="text/css">
	.st0{clip-path:url(#SVGID_00000140001900750673373300000001309195385376860342_);}
	.st1{fill:#F29137;}
	.st2{opacity:0.4;fill:#F29137;enable-background:new    ;}
</style>
<g>
	<defs>
		<rect id="SVGID_1_" x="3" y="1.7" width="18.2" height="20.8"/>
	</defs>
	<clipPath id="SVGID_00000048495126452539226870000001891340149578232749_">
		<use xlink:href="#SVGID_1_"  style="overflow:visible;"/>
	</clipPath>
	<g style="clip-path:url(#SVGID_00000048495126452539226870000001891340149578232749_);">
		<path class="st1" d="M12,10.8c1.1,0,1.9-0.9,1.9-1.9c0-1.1-0.9-1.9-1.9-1.9c-1.1,0-1.9,0.9-1.9,1.9C10.1,9.9,11,10.8,12,10.8z
			 M13.3,12.1h-2.6c-1.1,0-1.9,0.9-1.9,1.9v1.9c0,0.7,0.6,1.3,1.3,1.3v3.9c0,0.7,0.6,1.3,1.3,1.3h1.3c0.7,0,1.3-0.6,1.3-1.3v-3.9
			c0.7,0,1.3-0.6,1.3-1.3V14C15.3,12.9,14.4,12.1,13.3,12.1z"/>
		<path class="st2" d="M18.5,8.2h-2.6c-0.2,0-0.5,0-0.7,0.1c0,0.2,0.1,0.4,0.1,0.5c0,0.8-0.3,1.6-0.8,2.1c1.2,0.5,2.1,1.6,2.1,3v1.9
			c0,1-0.5,1.8-1.3,2.2v2.9c0,0.3-0.1,0.7-0.2,1c0.2,0.2,0.5,0.3,0.8,0.3h2.6c0.7,0,1.3-0.6,1.3-1.3v-5.2c0.7,0,1.3-0.6,1.3-1.3
			v-3.9C21.1,9.3,20,8.2,18.5,8.2z M6.9,6.9c1.4,0,2.6-1.2,2.6-2.6c0-1.4-1.2-2.6-2.6-2.6c-1.4,0-2.6,1.2-2.6,2.6
			C4.3,5.7,5.4,6.9,6.9,6.9z M17.2,6.9c1.4,0,2.6-1.2,2.6-2.6c0-1.4-1.2-2.6-2.6-2.6s-2.6,1.2-2.6,2.6C14.6,5.7,15.8,6.9,17.2,6.9z
			 M9.6,11c-0.5-0.6-0.8-1.3-0.8-2.1c0-0.2,0-0.4,0.1-0.5C8.6,8.2,8.4,8.2,8.2,8.2H5.6C4.1,8.2,3,9.3,3,10.8v3.9
			c0,0.7,0.6,1.3,1.3,1.3v5.2c0,0.7,0.6,1.3,1.3,1.3h2.6c0.3,0,0.6-0.1,0.8-0.3c-0.1-0.3-0.2-0.6-0.2-1v-2.9
			c-0.8-0.5-1.3-1.3-1.3-2.2V14C7.5,12.6,8.4,11.4,9.6,11z"/>
	</g>
</g>
</svg>
