<?xml version="1.0" encoding="utf-8"?>
<!-- Generator: Adobe Illustrator 26.3.1, SVG Export Plug-In . SVG Version: 6.00 Build 0)  -->
<svg version="1.1" id="Layer_1" xmlns="http://www.w3.org/2000/svg" xmlns:xlink="http://www.w3.org/1999/xlink" x="0px" y="0px"
	 viewBox="0 0 24.1 24.1" style="enable-background:new 0 0 24.1 24.1;" xml:space="preserve">
<style type="text/css">
	.st0{clip-path:url(#SVGID_00000080906560315452367720000002194460529208625821_);}
	.st1{fill:#FFFFFF;}
	.st2{fill:#003057;}
	.st3{fill:#2ED9C3;}
</style>
<g>
	<defs>
		<rect id="SVGID_1_" x="1.2" y="3.3" width="21.7" height="17.5"/>
	</defs>
	<clipPath id="SVGID_00000121996843392769088660000000219290888850397334_">
		<use xlink:href="#SVGID_1_"  style="overflow:visible;"/>
	</clipPath>
	<g style="clip-path:url(#SVGID_00000121996843392769088660000000219290888850397334_);">
		<path class="st1" d="M11.7,20.4c-0.2,0-3-2.5-8-2.5H2.7V3.5c0,0,0-0.2,0.2-0.2h1.3c1.5,0,4.4,0.4,7.8,2.7L11.7,20.4
			C11.9,20.4,11.9,20.4,11.7,20.4z"/>
		<path class="st2" d="M3.9,3.7c1.5,0,4.4,0.4,7.8,2.5v13.9c0,0-2.7-2.5-8-2.5H2.9V3.5C2.9,3.7,3.3,3.7,3.9,3.7z M3.9,3.3H2.7
			c-0.2,0-0.2,0.2-0.2,0.4v14.1c0,0,0,0.2,0.2,0.2h1.1c5.1,0,7.8,2.3,7.8,2.3h0.4c0.2,0,0.2-0.2,0.2-0.4V6c0-0.1-0.1-0.2-0.2-0.2
			C8.6,3.5,5.4,3.3,3.9,3.3z"/>
		<path class="st3" d="M11.3,20.8c-0.6-0.2-2.1-0.4-4.6-0.4c-1.7,0-3.4,0.2-5.3,0.4H1.2V6.5c0,0,0-0.2,0.2-0.2c0,0,0.4,0,1.1-0.2
			h0.2v12h1.1c2.7,0,4.6,0.6,5.9,1.3c1.3,0.6,1.9,1.1,2.1,1.3C11.5,20.6,11.7,20.6,11.3,20.8C11.5,20.8,11.5,20.8,11.3,20.8
			C11.3,20.8,11.5,20.8,11.3,20.8z"/>
		<path class="st2" d="M2.4,6.2v12h1.3c2.5,0,4.6,0.6,5.9,1.3c1.3,0.6,1.9,1.3,1.9,1.3c-0.4-0.2-2.1-0.6-4.9-0.6
			c-1.5,0-3.2,0.2-5.3,0.4V6.5C1.4,6.5,1.8,6.2,2.4,6.2z M2.4,5.8C2.4,5.8,2.2,5.8,2.4,5.8C1.6,6,1.4,6,1.4,6C1.2,6,1.2,6.2,1.2,6.5
			v14.1c0,0.1,0.1,0.2,0.2,0.2h0.2c1.9-0.2,3.6-0.4,5.3-0.4c2.5,0,4.2,0.4,4.6,0.4h0.2c0.1,0,0.3-0.1,0.4-0.2v-0.4
			c0,0-0.8-0.6-2.1-1.3c-1.3-0.6-3.2-1.3-5.9-1.3H3.3V6c0-0.1-0.1-0.2-0.2-0.2H2.4z"/>
		<path class="st1" d="M12.2,20.4C12,20.4,12,20.4,12.2,20.4L11.9,6.2c3.4-2.5,6.5-2.7,8-2.7h1.3c0,0,0.2,0,0.2,0.2v14.4h-1.1
			C15.1,17.9,12.4,20.4,12.2,20.4z"/>
		<path class="st2" d="M20,3.7H21v14.1h-0.8c-5.3,0-8,2.5-8,2.5V6.5C15.5,3.9,18.3,3.7,20,3.7z M20,3.3c-1.5,0-4.6,0.4-8,2.7
			l-0.2,0.2v13.9c0,0.1,0.1,0.3,0.2,0.4h0.4c0,0,2.7-2.3,7.8-2.3h1.1l0.2-0.2V3.9c0-0.2-0.2-0.4-0.2-0.4C21,3.3,20.6,3.3,20,3.3
			L20,3.3z"/>
		<path class="st3" d="M12.4,20.8c-0.1-0.1-0.2-0.3-0.2-0.4c0,0,0.8-0.6,2.1-1.3c1.3-0.6,3.2-1.3,5.9-1.3h1.1v-12h0.2
			C22.1,6,22.5,6,22.5,6s0.2,0,0.2,0.2v14.4h-0.2c-1.9-0.2-3.6-0.4-5.3-0.4C14.5,20.2,13,20.6,12.4,20.8
			C12.4,20.8,12.6,20.8,12.4,20.8z"/>
		<path class="st2" d="M21.4,6.2c0.6,0.2,1.1,0.2,1.1,0.2v14.1c-2.1-0.2-3.8-0.4-5.3-0.4c-2.7,0-4.2,0.4-4.9,0.6
			c0,0,0.6-0.6,1.9-1.3c1.3-0.6,3.2-1.3,5.9-1.3h1.3V6.2z M21.4,5.8h-0.2L21,6v11.6h-0.8c-2.7,0-4.6,0.6-5.9,1.3
			c-1.3,0.6-2.1,1.3-2.1,1.3c-0.2,0.2-0.2,0.4,0,0.4c0,0.2,0.2,0.2,0.4,0.2c0.6-0.2,2.1-0.4,4.6-0.4c1.7,0,3.4,0.2,5.3,0.4h0.2
			l0.2-0.2V6.5c0-0.2-0.2-0.4-0.2-0.4S22.3,6,21.4,5.8C21.4,5.8,21.7,5.8,21.4,5.8z"/>
	</g>
</g>
</svg>
