<?xml version="1.0" encoding="utf-8"?>
<!-- Generator: Adobe Illustrator 26.3.1, SVG Export Plug-In . SVG Version: 6.00 Build 0)  -->
<svg version="1.1" id="Layer_1" xmlns="http://www.w3.org/2000/svg" xmlns:xlink="http://www.w3.org/1999/xlink" x="0px" y="0px"
	 viewBox="0 0 24.1 24.1" style="enable-background:new 0 0 24.1 24.1;" xml:space="preserve">
<style type="text/css">
	.st0{clip-path:url(#SVGID_00000160881012566480444010000004169715814701259188_);}
	.st1{fill:#FFFFFF;}
	.st2{fill:#8A1A9B;}
</style>
<g>
	<defs>
		<rect id="SVGID_1_" x="3.7" y="0.3" width="17.2" height="23.1"/>
	</defs>
	<clipPath id="SVGID_00000091696897098238328960000010528478391563943318_">
		<use xlink:href="#SVGID_1_"  style="overflow:visible;"/>
	</clipPath>
	<g style="clip-path:url(#SVGID_00000091696897098238328960000010528478391563943318_);">
		<path class="st1" d="M6,23.1c-1.1,0-2-0.8-2-2V4c0-1.1,0.8-2,2-2h10.1l4.2,4.5v14.7c0,1.1-0.8,2-2,2H6z"/>
		<path class="st2" d="M16.1,2.3l3.9,4.2v14.7c0,0.8-0.8,1.7-1.7,1.7H6c-0.8,0-1.7-0.8-1.7-1.7V4c0-0.8,0.8-1.7,1.7-1.7H16.1z
			 M16.1,1.7H6C4.9,1.7,3.7,2.6,3.7,4v17.2c0,1.1,0.8,2.3,2.3,2.3h12.7c1.1,0,2.3-0.8,2.3-2.3V6.5L16.1,1.7z"/>
		<path class="st1" d="M6,23.1c-1.1,0-2-0.8-2-2V4c0-1.1,0.8-2,2-2h9.9v4.5h4.5v14.7c0,1.1-0.8,2-2,2H6z"/>
		<path class="st2" d="M15.6,2.3v4.8h4.5v14.4c0,0.8-0.8,1.7-1.7,1.7H6c-0.8,0-1.7-0.8-1.7-1.7V4.2c0-0.8,0.8-1.7,1.7-1.7h9.6
			 M16.1,1.7H6C4.9,1.7,3.7,2.6,3.7,4v17.2c0,1.1,0.8,2.3,2.3,2.3h12.7c1.1,0,2.3-0.8,2.3-2.3V6.5h-4.5V1.7H16.1z"/>
		<path class="st2" d="M10.8,9.3l-0.3-0.8L9.9,7.1V6.8L5.1,0.6L4.9,0.3H4.6L4,0.9c0,0,0,0.3-0.3,0.3v0.3l4.8,6.2v0.3l1.1,0.8
			l0.6,0.6H10.8C10.8,9.6,10.8,9.9,10.8,9.3z"/>
		<path class="st2" d="M8,14.7c0.3,0.3,0.6,0.6,1.1,0.6c0.6,0,0.8-0.3,0.8-0.8c0-0.3-0.3-0.6-0.3-0.8C8.5,13,8,12.4,8,11.6
			s0.6-1.4,1.4-1.4c0.6,0,0.8,0.3,1.4,0.8l-0.3,0.6C10.2,11.3,9.9,11,9.4,11c-0.3,0-0.8,0.3-0.8,0.8c0,0.3,0.3,0.6,0.3,0.8
			c1.1,0.8,1.7,1.1,1.7,2c0,0.8-0.6,1.7-1.4,1.7c-0.6,0-1.1-0.3-1.4-0.8L8,14.7z"/>
		<path class="st2" d="M12.2,11.3c0.6-0.8,1.1-1.1,2-1.1c1.4,0,2.5,1.4,2.5,2.8s-1.1,2.8-2.5,2.8c-0.8,0-1.4-0.3-2-1.1v2.8h-0.6
			v-7.3h0.6V11.3z M12.2,13.3c0,1.4,0.8,2.3,2,2.3c1.1,0,2-1.1,2-2.3c0-1.1-0.8-2.3-2-2.3C13,11,12.2,11.9,12.2,13.3z"/>
	</g>
</g>
</svg>
