<?xml version="1.0" encoding="utf-8"?>
<!-- Generator: Adobe Illustrator 26.3.1, SVG Export Plug-In . SVG Version: 6.00 Build 0)  -->
<svg version="1.1" id="Layer_1" xmlns="http://www.w3.org/2000/svg" xmlns:xlink="http://www.w3.org/1999/xlink" x="0px" y="0px"
	 viewBox="0 0 24.1 24.1" style="enable-background:new 0 0 24.1 24.1;" xml:space="preserve">
<style type="text/css">
	.st0{fill:#CBD517;}
	.st1{fill:#EDF3F9;}
</style>
<g>
	<path class="st0" d="M7.7,21.3c-0.1,0-0.3-0.1-0.4-0.1l-0.5,1.6L8,21.5C8,21.4,7.8,21.4,7.7,21.3z"/>
	<path class="st1" d="M10.6,18.6c-0.3-0.1-0.4,0-0.7,0.1c0-0.2-0.1-0.3-0.4-0.4c-0.3-0.1-0.4,0-0.7,0.1c0-0.2-0.1-0.3-0.4-0.4l0,0
		l-0.2,0.4l-0.9,2.9c0.1,0,0.2,0,0.3,0.1c0.1,0,0.3,0.1,0.3,0.2l2.5-2.5L10.6,18.6C10.7,18.6,10.7,18.6,10.6,18.6z"/>
	<path class="st0" d="M18.3,0.7l-10,17.5l0,0c0.3,0.1,0.4,0.2,0.4,0.4c0.1-0.1,0.4-0.2,0.7-0.1s0.4,0.2,0.4,0.4
		c0.1-0.1,0.4-0.2,0.7-0.1l0,0l10-17.5L18.3,0.7z"/>
</g>
</svg>
