<svg version="1.1" id="Layer_1" xmlns="http://www.w3.org/2000/svg" xmlns:xlink="http://www.w3.org/1999/xlink" x="0px" y="0px" viewBox="0 0 581.1 113.4" style="enable-background:new 0 0 581.1 113.4;" xml:space="preserve"> <style type="text/css"> .st0{fill:#ffff;} </style> <path class="st0" d="M158.5,21.9h0.8v8.8h-0.8c-0.2-0.6-0.4-1-0.6-1.2c-0.3-0.2-0.7-0.3-1.2-0.3h-10.5v25.7c0,0.5,0.1,0.9,0.4,1.2 c0.2,0.3,0.6,0.5,1.2,0.6v0.8h-10.6v-0.8c0.6-0.2,1-0.4,1.2-0.6c0.2-0.3,0.3-0.7,0.3-1.2V29.1h-10.5c-0.5,0-0.9,0.1-1.1,0.3 c-0.3,0.2-0.5,0.6-0.6,1.2h-0.8v-8.8h0.8c0.2,0.6,0.4,1,0.7,1.2c0.3,0.2,0.6,0.3,1.1,0.3h28.4c0.5,0,0.9-0.1,1.2-0.3 C158.1,22.9,158.3,22.5,158.5,21.9z M191.6,30.3c0.6,0.2,1,0.4,1.3,0.7c0.2,0.3,0.3,0.7,0.3,1.2v8.1h-15.5v-8.1 c0-0.5,0.1-0.9,0.3-1.2c0.2-0.3,0.6-0.5,1.2-0.7v-0.7h-9.8v0.7c0.6,0.2,1,0.4,1.2,0.7c0.2,0.3,0.3,0.7,0.3,1.2v22.7 c0,0.5-0.1,0.9-0.4,1.2c-0.2,0.3-0.6,0.5-1.2,0.6v0.7h9.8v-0.7c-0.6-0.2-1-0.4-1.2-0.7c-0.2-0.3-0.3-0.7-0.3-1.2v-9.6h15.5v9.6 c0,0.5-0.1,0.9-0.4,1.2c-0.2,0.3-0.6,0.5-1.2,0.6v0.7h9.8v-0.7c-0.6-0.2-1-0.4-1.2-0.7c-0.2-0.3-0.3-0.7-0.3-1.2V32.1 c0-0.5,0.1-0.9,0.3-1.2c0.2-0.3,0.6-0.5,1.2-0.7v-0.7h-9.8V30.3z M240.8,52c-0.3,0.2-0.7,0.3-1.2,0.3h-17.7v-6.8h10.5 c0.5,0,0.9,0.1,1.2,0.4c0.3,0.2,0.5,0.6,0.7,1.2h0.7v-8h-0.7c-0.2,0.6-0.4,1-0.7,1.2c-0.3,0.2-0.7,0.3-1.2,0.3h-10.5v-6.1h16.9 c0.5,0,0.9,0.1,1.2,0.3c0.3,0.2,0.5,0.6,0.7,1.2h0.7V28h-0.7c-0.2,0.6-0.4,1-0.7,1.2c-0.3,0.2-0.7,0.3-1.2,0.3h-25.1v0.7 c0.6,0.2,1,0.4,1.2,0.7c0.2,0.3,0.3,0.7,0.3,1.2v22.7c0,0.5-0.1,0.9-0.4,1.2c-0.2,0.3-0.6,0.5-1.2,0.6v0.7h25.9 c0.5,0,0.9,0.1,1.2,0.4c0.3,0.2,0.5,0.6,0.6,1.2h0.7v-8.2h-0.7C241.3,51.4,241,51.8,240.8,52z M305.4,57.8c0.3,0.2,0.5,0.6,0.6,1.2 h0.8v-8.8H306c-0.2,0.6-0.4,1-0.6,1.2c-0.3,0.2-0.7,0.3-1.2,0.3h-20.8V26.1c0-0.5,0.1-0.9,0.3-1.2c0.2-0.3,0.6-0.5,1.2-0.6v-0.8 h-10.6v0.8c0.6,0.2,1,0.4,1.2,0.6c0.2,0.3,0.3,0.7,0.3,1.2v28.7c0,0.5-0.1,0.9-0.3,1.2c-0.2,0.3-0.6,0.5-1.2,0.6v0.8h29.8 C304.7,57.4,305.1,57.5,305.4,57.8z M327,56.7c-0.6-0.2-1-0.4-1.2-0.7c-0.2-0.3-0.3-0.7-0.3-1.2V32.1c0-0.5,0.1-0.9,0.3-1.2 c0.2-0.3,0.6-0.5,1.2-0.7v-0.7h-9.8v0.7c0.6,0.2,1,0.4,1.2,0.7c0.2,0.3,0.3,0.7,0.3,1.2v22.7c0,0.5-0.1,0.9-0.4,1.2 c-0.2,0.3-0.7,0.5-1.2,0.6v0.7h9.8V56.7z M338.5,35c0.3-0.2,0.7-0.4,1.2-0.4h8.2v20.2c0,0.5-0.1,0.9-0.4,1.2 c-0.2,0.3-0.7,0.5-1.2,0.6v0.7h9.8v-0.7c-0.6-0.2-1-0.4-1.2-0.7c-0.2-0.3-0.3-0.7-0.3-1.2V34.6h8.2c0.5,0,0.9,0.1,1.2,0.4 c0.3,0.2,0.5,0.6,0.7,1.2h0.7V28h-0.7c-0.2,0.6-0.4,1-0.7,1.2c-0.3,0.2-0.7,0.3-1.2,0.3h-23.1c-0.5,0-0.9-0.1-1.2-0.4 c-0.3-0.2-0.5-0.6-0.6-1.2h-0.7v8.2h0.7C338,35.6,338.3,35.2,338.5,35z M403,57.8c0.3,0.2,0.5,0.6,0.6,1.2h0.7v-8.2h-0.7 c-0.2,0.6-0.4,1-0.7,1.2c-0.3,0.2-0.7,0.3-1.2,0.3h-17.7v-6.8h10.5c0.5,0,0.9,0.1,1.2,0.4c0.3,0.2,0.5,0.6,0.7,1.2h0.7v-8h-0.7 c-0.2,0.6-0.4,1-0.7,1.2c-0.3,0.2-0.7,0.3-1.2,0.3h-10.5v-6.1H401c0.5,0,0.9,0.1,1.2,0.3c0.3,0.2,0.5,0.6,0.7,1.2h0.7V28h-0.7 c-0.2,0.6-0.4,1-0.7,1.2c-0.3,0.2-0.7,0.3-1.2,0.3h-25.1v0.7c0.6,0.2,1,0.4,1.2,0.7c0.2,0.3,0.3,0.7,0.3,1.2v22.7 c0,0.5-0.1,0.9-0.4,1.2c-0.2,0.3-0.7,0.5-1.2,0.6v0.7h25.9C402.3,57.4,402.7,57.5,403,57.8z M445.6,55.8c0.6,0.5,1.2,0.8,2,0.9v0.7 h-11.7v-0.7c0.9-0.2,1.3-0.6,1.3-1.1c0-0.4-0.3-0.9-0.8-1.7l-5.6-8h-6.7v8.9c0,0.5,0.1,0.9,0.3,1.2c0.2,0.3,0.6,0.5,1.2,0.7v0.7 h-9.8v-0.7c0.6-0.1,1-0.4,1.2-0.6c0.2-0.3,0.4-0.7,0.4-1.2V32.1c0-0.5-0.1-0.9-0.3-1.2c-0.2-0.3-0.6-0.5-1.2-0.7v-0.7h18.2 c2.4,0,4.2,0.1,5.4,0.4c1.2,0.2,2.4,0.7,3.3,1.3c2,1.3,3,3.4,3,6.4c0,2.2-0.6,4-1.8,5.3c-1.2,1.3-3.2,2.2-6,2.7l5.3,7.3 C444.2,54.4,445,55.3,445.6,55.8z M437.5,40.5c1-0.4,1.5-1.3,1.5-2.7c0-1.2-0.4-2-1.1-2.5c-0.7-0.5-2-0.7-3.8-0.7h-10v6.3h10 C435.7,40.9,436.8,40.8,437.5,40.5z M490.9,56c0.3,0.3,0.8,0.5,1.5,0.7v0.7H481v-0.7c1.1-0.2,1.6-0.7,1.6-1.5c0-0.5-0.2-1.1-0.6-1.9 l-1.5-2.8h-12.8l-1.4,3c-0.3,0.7-0.5,1.3-0.5,1.7c0,0.8,0.5,1.3,1.6,1.5v0.7h-10.2v-0.7c0.6-0.1,1.1-0.3,1.4-0.6 c0.3-0.3,0.7-0.8,1.1-1.7l10.2-20.6c0.4-0.8,0.6-1.5,0.6-2c0-0.7-0.5-1.2-1.4-1.6v-0.7h10.8v0.7c-0.9,0.4-1.4,0.9-1.4,1.7 c0,0.5,0.2,1.2,0.6,2l10.5,19.9C490.1,55,490.6,55.7,490.9,56z M478.5,46.6l-4.6-8.9l-4.3,8.9H478.5z M528.7,39.2l0.5,0.4l4.2-6.1 l-0.6-0.4c-0.4,0.3-0.7,0.4-0.9,0.4c-0.3,0-0.9-0.3-2-0.9c-2.3-1.3-4.3-2.2-6-2.8c-1.8-0.5-3.8-0.8-6-0.8c-6.1,0-10.7,2-13.6,5.9 c-1.9,2.5-2.8,5.4-2.8,8.6c0,2.4,0.5,4.6,1.5,6.6c1,1.9,2.3,3.4,3.9,4.7c2.9,2.2,6.6,3.3,11.1,3.3c2.3,0,4.3-0.3,6-0.8 c1.7-0.5,3.7-1.4,6-2.8c1-0.6,1.7-0.9,2-0.9c0.2,0,0.5,0.1,0.9,0.4l0.6-0.4l-4.2-6.1l-0.5,0.4c0.1,0.4,0.1,0.7,0.1,0.7 c0,0.7-0.9,1.5-2.7,2.4c-2.3,1.2-4.7,1.8-7,1.8c-3,0-5.5-0.8-7.4-2.4c-2.2-1.8-3.4-4.1-3.4-6.9c0-2.8,1.1-5.1,3.4-6.9 c2-1.6,4.4-2.4,7.4-2.4c2.1,0,4.3,0.5,6.4,1.5c2.2,1,3.4,1.9,3.4,2.7c0,0.1,0,0.2,0,0.3C528.8,38.8,528.8,39,528.7,39.2z M561.5,29.6l0,0.7c1.1,0.3,1.6,0.8,1.6,1.5c0,0.4-0.4,1.1-1.2,2.2l-3.9,5.6l-4-5.6c-0.8-1.1-1.2-1.8-1.2-2.2c0-0.7,0.5-1.2,1.6-1.5 v-0.7h-12.5v0.7c0.8,0.2,1.4,0.5,2,1c0.6,0.5,1.3,1.3,2.2,2.6l8.2,11.3v9.7c0,0.5-0.1,0.9-0.3,1.2c-0.2,0.3-0.6,0.5-1.2,0.7v0.7h9.8 v-0.7c-0.6-0.2-1-0.4-1.2-0.7c-0.2-0.3-0.3-0.7-0.3-1.2v-9.7l8.2-11.3c0.9-1.3,1.7-2.1,2.2-2.6c0.6-0.5,1.2-0.8,2-1v-0.7H561.5z M297.2,80.6l2-2.9l-0.3-0.2c-0.2,0.2-0.3,0.3-0.5,0.3c-0.1,0-0.5-0.2-1-0.5c-1.2-0.7-2.2-1.1-3-1.4c-0.8-0.2-1.7-0.3-2.9-0.3 c-3,0-5.3,0.9-6.8,2.8c-1,1.2-1.5,2.7-1.5,4.4c0,1.2,0.3,2.4,0.8,3.4c0.5,0.9,1.1,1.7,2,2.3c1.4,1,3.2,1.6,5.4,1.6 c1.1,0,2.1-0.1,2.9-0.4c0.8-0.2,1.8-0.7,3-1.4c0.6-0.3,0.9-0.5,1-0.5c0.1,0,0.3,0.1,0.5,0.3l0.3-0.2l-2-2.9l-0.3,0.2 c0,0.1,0,0.2,0,0.3c0,0.2-0.1,0.4-0.3,0.6c-0.2,0.2-0.5,0.4-0.9,0.6c-1.2,0.7-2.5,1-3.8,1c-1.6,0-2.9-0.4-3.8-1.2 c-1.1-0.9-1.7-2.2-1.7-3.7c0-1.5,0.6-2.7,1.7-3.7c1-0.8,2.2-1.2,3.8-1.2c1.4,0,2.6,0.3,3.8,1c0.4,0.3,0.7,0.5,0.9,0.6 c0.2,0.2,0.3,0.4,0.3,0.6c0,0.1,0,0.2,0,0.3L297.2,80.6z M316.5,77.6c1.5,1.4,2.3,3.2,2.3,5.4c0,1.3-0.4,2.6-1.1,3.8 c-1.4,2.3-3.7,3.4-7,3.4c-2.4,0-4.3-0.7-5.8-2c-0.8-0.7-1.3-1.6-1.7-2.5c-0.3-0.9-0.5-1.8-0.5-2.7c0-1.4,0.4-2.7,1.1-3.8 c1.4-2.2,3.7-3.4,7-3.4C313.1,75.6,315.1,76.3,316.5,77.6z M315.6,82.9c0-1.6-0.5-2.8-1.6-3.7c-0.9-0.8-2-1.2-3.4-1.2 c-1.3,0-2.5,0.4-3.3,1.2c-1.1,0.9-1.6,2.2-1.6,3.7c0,1.5,0.5,2.7,1.6,3.7c0.9,0.8,2,1.2,3.4,1.2c1.3,0,2.5-0.4,3.3-1.2 c0.5-0.5,0.9-1,1.2-1.7C315.5,84.2,315.6,83.5,315.6,82.9z M335.6,76.2c0.3,0,0.5,0.2,0.5,0.5c0,0.1-0.1,0.4-0.3,0.7l-3.9,7.1 l-3.8-7.2c-0.1-0.2-0.1-0.3-0.1-0.5c0-0.3,0.2-0.5,0.5-0.6v-0.3h-5.4v0.3c0.2,0.1,0.4,0.2,0.5,0.3c0.1,0.1,0.1,0.3,0.1,0.5v11.9 c0,0.2,0,0.4-0.1,0.5c-0.1,0.1-0.3,0.2-0.5,0.3v0.3h4.1v-0.3c-0.2-0.1-0.4-0.2-0.5-0.3c-0.1-0.1-0.1-0.3-0.1-0.5v-8.6l5.2,9.7 l5.5-9.7v8.6c0,0.2-0.1,0.4-0.2,0.5c-0.1,0.1-0.3,0.2-0.5,0.3v0.3h4.4v-0.3c-0.2-0.1-0.4-0.2-0.5-0.3c-0.1-0.1-0.1-0.3-0.1-0.5V76.9 c0-0.2,0-0.4,0.1-0.5c0.1-0.1,0.3-0.2,0.5-0.3v-0.3h-5.3V76.2z M359.3,78.1c0.3,0.6,0.4,1.2,0.4,1.9c0,0.9-0.3,1.8-0.8,2.5 c-0.4,0.6-1,1-1.7,1.3c-0.7,0.3-1.7,0.4-3,0.4h-5v4.6c0,0.2,0.1,0.4,0.1,0.5c0.1,0.1,0.3,0.2,0.5,0.3v0.3h-4.4v-0.3 c0.2-0.1,0.4-0.2,0.5-0.3c0.1-0.1,0.1-0.3,0.1-0.5V76.9c0-0.2,0-0.4-0.1-0.5c-0.1-0.1-0.3-0.2-0.5-0.3v-0.3h8.7c1,0,1.8,0.1,2.4,0.2 c0.6,0.1,1.1,0.4,1.6,0.7C358.7,77.1,359.1,77.6,359.3,78.1z M356.6,80c0-0.3-0.1-0.6-0.2-0.9c-0.1-0.3-0.3-0.5-0.6-0.6 c-0.4-0.2-1-0.3-2-0.3h-4.7v3.7h4.7c0.9,0,1.6-0.1,2-0.3c0.2-0.1,0.4-0.3,0.6-0.6C356.5,80.6,356.6,80.3,356.6,80z M377.4,89.2 c0.2,0.2,0.4,0.3,0.7,0.3v0.3h-5.2v-0.3c0.5-0.1,0.7-0.3,0.7-0.6c0-0.1-0.1-0.4-0.2-0.6l-1-2h-6.4l-0.9,2c-0.1,0.3-0.2,0.5-0.2,0.6 c0,0.3,0.2,0.5,0.7,0.6v0.3H361v-0.3c0.3-0.1,0.5-0.1,0.6-0.3c0.1-0.1,0.3-0.4,0.5-0.8l5.2-10.8c0.2-0.3,0.2-0.6,0.2-0.8 c0-0.3-0.2-0.5-0.6-0.7v-0.3h5v0.3c-0.4,0.1-0.6,0.3-0.6,0.6c0,0.2,0.1,0.4,0.2,0.7l5.3,10.8C377,88.7,377.2,89,377.4,89.2z M371.6,84.4l-2.3-5l-2.3,5H371.6z M393.1,76.2c0.2,0.1,0.4,0.2,0.5,0.3c0.1,0.1,0.1,0.3,0.1,0.5v8.3l-7.7-8 c-0.2-0.2-0.3-0.4-0.3-0.5c0-0.2,0.1-0.4,0.4-0.5v-0.3h-4.8v0.3c0.2,0.1,0.4,0.2,0.5,0.3c0.1,0.1,0.1,0.3,0.1,0.5v11.9 c0,0.2,0,0.4-0.1,0.5c-0.1,0.1-0.3,0.2-0.5,0.3v0.3h4.1v-0.3c-0.2-0.1-0.4-0.2-0.5-0.3c-0.1-0.1-0.1-0.3-0.1-0.5v-8.5l7.9,8.1 c0.3,0.3,0.5,0.6,0.5,0.7c0,0.2-0.1,0.4-0.4,0.4v0.3h4.4v-0.3c-0.2-0.1-0.4-0.2-0.5-0.3c-0.1-0.1-0.1-0.3-0.1-0.5V76.9 c0-0.2,0-0.4,0.1-0.5c0.1-0.1,0.3-0.2,0.5-0.3v-0.3h-4.1V76.2z M410.4,76.2c0.2,0,0.4,0.1,0.5,0.2c0.1,0.1,0.2,0.3,0.2,0.4 c0,0.1-0.1,0.4-0.4,0.8l-2.6,3.7l-2.5-3.7c-0.3-0.4-0.4-0.7-0.4-0.8c0-0.4,0.2-0.6,0.7-0.6v-0.3h-5.5v0.3c0.3,0,0.6,0.2,0.8,0.3 c0.2,0.2,0.5,0.6,0.9,1.1l4.5,6.4v4.8c0,0.2,0,0.4-0.2,0.5c-0.1,0.1-0.3,0.2-0.5,0.3v0.3h4.4v-0.3c-0.2-0.1-0.4-0.2-0.5-0.3 c-0.1-0.1-0.1-0.3-0.1-0.5V84l4.5-6.4c0.4-0.5,0.7-0.9,0.9-1.1c0.2-0.2,0.5-0.3,0.8-0.3v-0.3h-5.4V76.2z M97.1,56.6 c0,23.5-19.2,42.7-42.7,42.7S11.7,80.1,11.7,56.6c0-16.4,9.3-30.7,22.9-37.8v56.6H40v-59c4.5-1.6,9.4-2.5,14.4-2.5 C78,13.9,97.1,33,97.1,56.6z M50.8,61c0-4.3,2.5-10.1,9.4-10.1c5.1,0,7.2,3.6,8.1,5.4h6c-1.1-4.2-6-10.3-14.1-10.3 c-9,0-14.7,7.3-14.7,15c0,7.4,5.3,15.1,14.7,15.1c6.4,0,11.9-3.8,14.1-10.2h-6c-1.3,2.9-4.1,5.3-8.1,5.3C54,71.1,50.8,65.9,50.8,61z M101.8,56.6c0,26.2-21.2,47.4-47.4,47.4C28.3,103.9,7,82.7,7,56.6C7,30.4,28.3,9.2,54.4,9.2C80.6,9.2,101.8,30.4,101.8,56.6z M98.8,56.6c0-24.5-19.9-44.4-44.4-44.4C29.9,12.1,10,32.1,10,56.6C10,81,29.9,101,54.4,101C78.9,101,98.8,81,98.8,56.6z"/> </svg>